# xmcd CD database file
#
# Track frame offsets:
#	150
#	4612
#	26045
#	50957
#	74222
#	100430
#	128255
#	150232
#	177225
#	203232
#	238287
#	259777
#	275907
#
# Disc length: 3967 seconds
#
# Revision: 6
# Processed by: cddbd v1.5PL3 Copyright (c) Steve Scherf et al.
# Submitted via: CDex 1.51
#
DISCID=bf0f7d0d
DTITLE=MISIA - MARVELOUS
DYEAR=2001
DGENRE=JPop
TTITLE0=Intro
TTITLE1=Rhythm Reflection
TTITLE2=愛の歌
TTITLE3=SUNNY DAY
TTITLE4=あの夏のままで
TTITLE5=Nocturne
TTITLE6=Escape
TTITLE7=la la la
TTITLE8=Change for good
TTITLE9=Everything
TTITLE10=時をとめて
TTITLE11=I miss you 〜時を越えて〜 
TTITLE12=Everything Junior Vasquez Remix
EXTD=YEAR: 2001
EXTT0=
EXTT1=
EXTT2=
EXTT3=
EXTT4=
EXTT5=
EXTT6=
EXTT7=
EXTT8=
EXTT9=
EXTT10=
EXTT11=
EXTT12=
PLAYORDER=
